<svg xmlns="http://www.w3.org/2000/svg" xmlns:xlink="http://www.w3.org/1999/xlink" viewBox="49.35 52.69 247.15 280.9"><path fill="#a78bfa" transform="scale(0.547619 0.547619)" d="M171.119 131.85C191.669 83.2463 236.727 96.5684 277.907 102.316L362.377 114.59L412.233 121.81C435.539 125.29 461.649 127.331 477.899 146.507C490.99 161.351 493.73 183.535 489.992 202.414C487.789 213.539 488.038 239.489 479.473 246.564C477.196 252.987 473.576 290.077 473.108 298.427C482.796 327.891 484.162 352.259 470.394 381.49C467.47 387.699 461.224 396.038 458.898 401.254C456.562 434.027 450.707 469.083 446.49 501.853C444.472 517.534 441.589 544.23 436.624 558.455C433.857 566.255 429.093 573.193 422.806 578.576C405.229 593.895 379.716 594.054 357.349 595.019C350.54 595.19 342.225 596.783 335.126 597.33C305.806 599.59 277.039 602.262 247.619 604.286C221.561 606.078 191.114 610.737 165.398 608.615C156.149 607.851 145.263 601.921 138.295 596.167C123.833 584.225 118.017 566.672 116.488 548.457C115.025 531.026 114.081 513.427 112.725 495.947L100.68 338.398L93.4006 244.021C91.1078 214.363 83.5294 179.077 103.862 154.454C121.176 133.486 146.496 134.219 171.119 131.85Z"/><path fill="#4c1d95" transform="scale(0.547619 0.547619)" d="M171.119 131.85C191.669 83.2463 236.727 96.5684 277.907 102.316L362.377 114.59L412.233 121.81C435.539 125.29 461.649 127.331 477.899 146.507C490.99 161.351 493.73 183.535 489.992 202.414C487.789 213.539 488.038 239.489 479.473 246.564C476.111 245.561 473.077 244.824 471.277 241.49C462.947 226.059 488.513 183.866 466.237 156.956C461.354 151.024 454.874 146.615 447.565 144.251C437.715 141.035 417.816 138.144 407.18 136.554L344.62 127.525C320.087 123.693 295.528 120.031 270.944 116.539C256.522 114.444 242.626 112.208 228.382 111.29C209.576 110.078 190.349 122.327 185.109 140.469C181.754 152.088 180.006 169.319 178.256 181.532L165.697 274.104C157.723 328.313 150.143 382.578 142.958 436.897C139.761 460.754 135.414 484.572 133.51 508.593C132.932 515.893 135.638 524.516 139.029 530.925C149.762 551.21 170.109 552.602 190.104 555.772C207.296 558.497 224.53 560.754 241.771 563.272C263.712 566.561 285.675 569.701 307.658 572.693C336.986 576.746 366.573 587.844 370.459 546.795C364.286 546.101 351.033 544.144 351.308 535.656C351.981 533.785 353.096 532.638 354.841 531.916C361.755 529.057 398.728 525.577 404.016 527.332C407.65 533.744 398.429 542.314 393.295 545.17C391.019 546.426 388.694 547.59 386.324 548.66C383.287 564.76 379.518 577.729 365.045 587.362C362.293 589.193 356.185 591.98 354.507 594.067L354.857 594.721L357.349 595.019C350.54 595.19 342.225 596.783 335.126 597.33C305.806 599.59 277.039 602.262 247.619 604.286C221.561 606.078 191.114 610.737 165.398 608.615C156.149 607.851 145.263 601.921 138.295 596.167C123.833 584.225 118.017 566.672 116.488 548.457C115.025 531.026 114.081 513.427 112.725 495.947L100.68 338.398L93.4006 244.021C91.1078 214.363 83.5294 179.077 103.862 154.454C121.176 133.486 146.496 134.219 171.119 131.85Z"/><path fill="#a78bfa" transform="scale(0.547619 0.547619)" d="M162.441 148.626C164.277 148.453 165.246 148.155 166.84 149.032C167.119 151.725 164.061 169.889 163.464 173.764C161.696 185.627 160.022 197.504 158.44 209.394L139.663 343.316C135.3 375.266 131.176 407.306 126.628 439.239C126.049 443.302 125.265 447 123.811 450.853L122.835 439.682C122.324 417.998 119.345 386.911 117.684 364.737L107.019 224.283C105.508 203.995 101.975 180.428 116.39 164.635C129.723 150.027 144.43 149.751 162.441 148.626Z"/><path fill="#a78bfa" transform="scale(0.547619 0.547619)" d="M131.715 549.619C134.768 550.552 143.017 558.346 146.652 560.404C160.088 568.011 178.4 569.405 193.488 571.716C212.354 574.625 231.246 577.361 250.161 579.925C255.228 580.617 279.926 583.651 283.409 585.185C281.232 586.152 277.945 586.143 275.464 586.299C255.839 588.152 236.205 589.905 216.563 591.556C204.129 592.593 181.342 594.897 169.551 593.26C162.601 592.335 155.994 589.684 150.332 585.55C137.908 576.473 133.883 563.975 131.715 549.619Z"/><path fill="#4c1d95" transform="scale(0.547619 0.547619)" d="M458.898 401.254C448.12 411.356 435.351 425.581 430.305 439.712C428.732 444.119 428.097 449.003 427.106 453.574C426.08 458.302 424.524 465.087 419.932 467.711C412.305 472.069 345.825 471.533 335.903 468.492C328.866 466.336 327.152 455.855 325.623 449.687C324.062 443.39 322.473 437.088 319.497 431.28C316.059 424.573 310.567 418.503 305.836 412.69C297.65 402.634 289.72 392.783 283.716 381.215C272.326 359.272 270.48 332.167 278.038 308.649C286.547 281.869 305.283 259.531 330.171 246.495C354.667 234.07 383.062 231.766 409.239 240.08C439.993 250.006 458.746 270.412 473.108 298.427C482.796 327.891 484.162 352.259 470.394 381.49C467.47 387.699 461.224 396.038 458.898 401.254Z"/><path fill="#FCFCFB" transform="scale(0.547619 0.547619)" d="M370.789 250.356C443.116 244.774 492.54 324.503 450.971 385.432C442.616 397.678 431.841 407.73 424.207 420.659C417.175 432.568 414.132 443.07 410.991 456.275L392.152 456.1C392.706 433.794 394.139 403.231 397.191 381.49C405.225 381.306 415.669 378.956 421.475 373.105C425.122 369.481 427.112 364.512 426.976 359.372C426.607 345.383 414.659 340.963 402.612 341.432C393.602 346.295 391.27 354 389.103 363.585C388.549 366.034 388.288 368.504 387.026 370.636L385.383 370.909C379.221 370.95 372.895 371.177 366.721 371.327C365.507 360.185 363.402 344.176 349.664 341.683C334.248 338.885 321.291 358.025 331.637 370.866C338.355 379.202 347.617 380.578 357.532 381.957C358.203 405.668 361.171 431.609 362.146 456.111L342.47 456.505C339.727 436.851 333.329 425.171 321.359 409.888C306.147 390.465 291.549 373.024 288.845 347.533C286.57 324.041 293.674 300.603 308.607 282.329C325.079 262.026 345.335 252.999 370.789 250.356Z"/><path fill="#FCFCFB" transform="scale(0.547619 0.547619)" d="M367.875 382.016L386.134 381.849C384.745 404.238 382.54 427.147 381.131 449.798L380.551 454.575C378.705 456.477 374.283 455.505 374.169 454.97C370.11 436.039 368.652 399.582 367.875 382.016Z"/><path fill="#FCFCFB" transform="scale(0.547619 0.547619)" d="M407.088 350.98C411.38 351.069 417.469 353.416 416.28 358.813C415.092 364.207 411.178 367.014 406.784 369.803C403.959 370.664 401.837 371.305 399.191 369.544C395.219 364.015 403.148 354.557 407.088 350.98Z"/><path fill="#FCFCFB" transform="scale(0.547619 0.547619)" d="M345.082 351.042L348.132 351.192C353.748 354.304 357.259 364.374 355.1 370.364C352.938 371.118 352.412 370.603 349.896 370.14C336.295 366.527 335.252 359.932 345.082 351.042Z"/><path fill="#4c1d95" transform="scale(0.547619 0.547619)" d="M407.119 501.099C411.09 500.759 420.306 499.149 421.622 504.333C423.053 509.97 419.203 511.79 414.522 512.817C405.801 514.73 396.808 515.922 387.963 517.173C374.602 518.977 361.266 520.958 347.958 523.116C344.8 523.619 339.463 525.182 336.597 523.369C334.868 522.276 333.884 519.97 333.64 517.994C333.45 516.46 333.789 515.424 334.814 514.259C341.532 506.63 394.499 502.544 407.119 501.099Z"/><path fill="#4c1d95" transform="scale(0.547619 0.547619)" d="M409.189 477.467C411.782 477.091 415.192 476.623 417.681 477.594C419.487 478.298 421.819 480.14 422.347 482.1C422.763 483.648 422.3 484.959 421.31 486.173C416.307 492.305 357.694 498.468 346.654 500.018C343.426 500.468 339.385 501.438 336.631 499.236C335.211 498.101 334.186 496.356 334.014 494.535C333.882 493.135 334.211 491.928 335.136 490.858C339.984 485.248 398.731 478.596 409.189 477.467Z"/><path fill="#4c1d95" transform="scale(0.547619 0.547619)" d="M237.065 251.9C244.925 253.025 271.373 266.273 272.247 273.628C272.002 275.992 270.038 277.907 268.487 279.798C261.59 281.88 238.333 267.693 234.726 261.049C233.617 259.008 236.186 253.951 237.065 251.9Z"/><path fill="#4c1d95" transform="scale(0.547619 0.547619)" d="M264.904 395.113C268.023 395.006 272.52 396.172 272.871 399.236C273.936 408.554 248.81 419.57 243.017 421.775C235.431 423.173 232.874 413.798 241.289 408.156C249.551 402.617 255.583 398.95 264.904 395.113Z"/><path fill="#4c1d95" transform="scale(0.547619 0.547619)" d="M221.814 330.433C228.741 330.075 260.882 327.55 252.722 341.342C251.374 343.62 249.029 343.988 246.664 344.508C241.072 344.699 214.921 347.162 213.606 337.743C212.892 332.632 217.199 330.877 221.814 330.433Z"/><path fill="#4c1d95" transform="scale(0.547619 0.547619)" d="M299.49 194.745C303.778 195.189 313.021 209.836 314.945 213.878C319.028 222.457 320.96 227.469 312.771 233.6C305.15 230.325 294.933 208.124 291.785 200.599C293.92 198.59 297.055 196.489 299.49 194.745Z"/><path fill="#4c1d95" transform="scale(0.547619 0.547619)" d="M453.441 195.345C472.955 196.856 447.772 228.027 442.104 233.637C438.524 232.393 434.727 230.386 435.197 226.055C436.326 215.65 446.354 202.437 453.441 195.345Z"/><path fill="#4c1d95" transform="scale(0.547619 0.547619)" d="M373.748 175.239C374.752 175.196 378.978 174.998 379.517 175.272C387.923 179.555 383.852 209.679 381.93 215.438C378.872 215.592 377.965 215.665 374.959 215.145C368.079 210.794 370.552 182.346 373.748 175.239Z"/><path fill="#4c1d95" transform="scale(0.547619 0.547619)" d="M484.655 394.488C493.133 394.071 506.952 402.521 513.509 407.708C519.389 412.359 521.689 416.489 516.15 422.361C508.487 423.336 473.777 405.212 484.655 394.488Z"/><path fill="#4c1d95" transform="scale(0.547619 0.547619)" d="M506.791 330.315C514.887 329.854 547.701 326.448 540.362 341.606C538.752 343.308 537.197 343.42 534.931 343.899C526.648 344.439 505.415 346.017 499.478 339.383C497.639 333.552 502.172 331.718 506.791 330.315Z"/><path fill="#4c1d95" transform="scale(0.547619 0.547619)" d="M511.003 254.141C514.612 253.888 517.854 253.961 519.731 257.359C519.798 266.295 497.881 277.074 490.401 280.004C474.854 280.74 483.432 268.248 491.538 263.735C498.827 259.676 502.854 256.896 511.003 254.141Z"/></svg>