<svg xmlns="http://www.w3.org/2000/svg" xmlns:xlink="http://www.w3.org/1999/xlink" viewBox="61.82 81.59 896.74 390.91"><path fill="#A585BD" transform="scale(1.3913 1.3912)" d="M88.6904 78.372C101.137 53.1161 119.68 58.0917 142.518 61.3471L180.726 66.9367L216.189 72.1193C226.698 73.683 243.916 75.2442 252.152 81.8814C258.904 87.2646 263.199 95.1443 264.064 103.737C264.614 109.353 263.606 115.19 262.79 120.738C261.911 126.716 262.191 136.171 258.244 140.959C255.283 148.442 255.454 160.376 254.166 168.592C259.554 187.593 260.864 200.409 250.932 218.674C249.016 222.197 246.982 224.406 246.689 228.292C246.059 240.193 243.086 257.236 241.484 269.365L238.546 292.204C237.044 303.586 236.212 314.613 227.189 322.914C216.903 332.378 201.705 331.957 188.386 331.756C186.19 332.296 180.751 332.945 178.29 333.151C158.657 334.791 139.117 336.462 119.453 337.88C108.652 338.659 96.4055 340.196 85.6998 339.417C81.025 339.076 74.5401 335.847 70.9174 332.742C61.1208 324.344 59.3233 314.736 58.3125 302.538L49.2729 179.581L45.9504 136.621C45.3403 128.774 43.9304 116.238 44.6168 108.714C45.2243 101.737 48.0141 95.1282 52.5901 89.8267C61.5192 79.4308 76.0097 79.2753 88.6904 78.372Z"/><path fill="#54386C" transform="scale(1.3913 1.3912)" d="M88.6904 78.372C101.137 53.1161 119.68 58.0917 142.518 61.3471L180.726 66.9367L216.189 72.1193C226.698 73.683 243.916 75.2442 252.152 81.8814C258.904 87.2646 263.199 95.1443 264.064 103.737C264.614 109.353 263.606 115.19 262.79 120.738C261.911 126.716 262.191 136.171 258.244 140.959C256.503 140.508 254.195 140.129 253.129 138.508C248.674 131.727 262.661 107.336 250.607 92.0789C247.774 88.4933 243.604 85.8824 239.203 84.716C231.568 82.6927 223.357 81.831 215.549 80.6539L171.813 74.2931L138.223 69.1559C128.697 67.7782 116.189 64.7164 107.594 69.8925C102.012 73.2547 97.4541 78.3882 96.1405 84.8994C94.0322 95.3996 92.7042 106.697 91.283 117.334C88.9224 135.095 86.4612 152.843 83.8996 170.577L73.1959 247.315C71.5328 259.481 69.27 271.443 68.4 283.696C67.5431 295.764 75.6284 305.808 87.3518 308.288C93.2731 309.526 99.4769 310.342 105.562 311.269C118.353 313.247 131.164 315.093 143.993 316.808C156.627 318.583 169.089 320.994 181.79 322.201C192.796 323.248 196.798 315.342 197.972 305.62C194.025 305.068 186.838 304.014 187.215 298.559C187.316 297.096 192.718 296.523 193.923 296.453C199.29 296.143 212.115 293.474 216.79 294.837C217.23 296.17 216.732 296.893 216.149 298.202C214.263 302.438 210.744 304.458 206.654 306.362C204.288 314.774 203.41 322.161 195.546 327.133C193.958 328.137 189.405 330.692 188.386 331.756C186.19 332.296 180.751 332.945 178.29 333.151C158.657 334.791 139.117 336.462 119.453 337.88C108.652 338.659 96.4055 340.196 85.6998 339.417C81.025 339.076 74.5401 335.847 70.9174 332.742C61.1208 324.344 59.3233 314.736 58.3125 302.538L49.2729 179.581L45.9504 136.621C45.3403 128.774 43.9304 116.238 44.6168 108.714C45.2243 101.737 48.0141 95.1282 52.5901 89.8267C61.5192 79.4308 76.0097 79.2753 88.6904 78.372Z"/><path fill="#A585BD" transform="scale(1.3913 1.3912)" d="M82.2436 87.5024L86.8137 87.3608C84.3182 102.22 82.9321 116.152 80.8617 130.976C77.3644 154.584 74.0087 178.212 70.795 201.859C69.505 211.577 68.0404 221.104 66.6416 230.792C65.5666 238.237 65.4906 245.06 63.7903 252.614C62.9277 249.6 62.7439 248.472 62.4245 245.436C61.2384 233.647 60.833 220.458 59.9152 208.385L53.3933 123.8C52.6649 113.855 51.5321 104.466 58.7242 96.2848C65.1225 89.0062 73.2565 88.0363 82.2436 87.5024Z"/><path fill="#A585BD" transform="scale(1.3913 1.3912)" d="M67.304 306.839C70.411 308.5 74.417 312.834 77.456 314.104C85.3979 317.338 94.0985 318.001 102.491 319.291C115.531 321.295 128.502 323.617 141.625 325.013C144.976 325.369 148.321 325.744 151.629 326.397L146.317 327.015C137.218 328.155 126.861 328.813 117.715 329.349C103.833 330.164 85.7942 335.49 74.9029 324.49C70.7073 320.253 67.2905 312.782 67.304 306.839Z"/><path fill="#54386C" transform="scale(1.3913 1.3912)" d="M246.689 228.292C246.688 227.484 246.775 227.151 246.292 226.51C244.746 227.043 242.692 229.873 241.59 231.123C237.672 235.573 233.725 240.554 231.237 245.974C228.926 251.01 230.159 258.521 225.572 262.252C223.064 264.292 187 263.831 181.484 263.176C179.021 262.884 177.793 262.364 176.44 260.235C173.734 255.977 173.683 250.251 171.912 245.573C169.129 238.222 162.554 231.846 157.732 225.754C148.148 213.644 143.698 200.151 145.557 184.653C147.418 169.587 155.155 155.867 167.082 146.478C178.759 137.257 193.648 133.11 208.41 134.967C223.681 136.77 237.543 144.761 246.756 157.074C249.297 160.503 251.773 165.694 254.166 168.592C259.554 187.593 260.864 200.409 250.932 218.674C249.016 222.197 246.982 224.406 246.689 228.292Z"/><path fill="#FBFBF9" transform="scale(1.3913 1.3912)" d="M201.464 142.833C205.961 142.782 210.02 143.155 214.388 144.281C226.656 147.542 237.136 155.523 243.543 166.482C252.924 182.495 253.002 201.979 242.227 217.236C237.391 224.084 231.479 230.073 227.208 237.305C223.608 243.402 222.158 249.083 220.388 255.821L210.148 255.57C210.686 242.041 211.529 228.525 212.677 215.034C216.692 214.492 220.605 214.066 224.167 211.909C229.342 208.776 230.696 202.361 227.233 197.339C225.592 194.953 223.056 193.33 220.202 192.838C210.343 191.217 208.512 202.135 207.547 209.137L202.867 209.198L195.878 209.238C195.388 202.99 194.454 194.654 186.819 193.009C181.485 191.859 175.458 196.104 174.557 201.528C174.123 204.133 174.791 206.801 176.402 208.893C179.774 213.338 185.589 214.397 190.746 215.101C190.967 220.248 191.72 225.957 192.179 231.165C192.899 239.28 193.425 247.411 193.757 255.552C190.149 255.807 186.714 255.856 183.105 255.915C182.118 250.24 180.01 242.933 176.917 238.066C166.899 222.298 154.718 215.044 153.452 194.622C152.654 181.554 157.034 168.697 165.642 158.833C175.776 147.39 186.782 143.697 201.464 142.833Z"/><path fill="#FBFBF9" transform="scale(1.3913 1.3912)" d="M199.126 215.1L207.052 214.943C205.479 226.112 204.647 244.15 204.052 255.417C203.255 255.522 202.403 255.673 201.599 255.661C201.11 255.654 200.458 255.521 200.118 255.157C199.186 254.158 196.523 218.775 196.68 215.668C197.349 215.067 198.048 215.207 199.126 215.1Z"/><path fill="#FBFBF9" transform="scale(1.3913 1.3912)" d="M218.375 198.333C226.496 199.195 223.351 205.367 218.318 208.455C216.546 208.917 215.512 209.153 213.863 208.196C211.539 204.605 215.638 200.376 218.375 198.333Z"/><path fill="#FBFBF9" transform="scale(1.3913 1.3912)" d="M184.69 197.97C189.753 199.472 189.684 204.953 189.881 209.296L186.092 208.549C178.913 205.662 178.083 202.455 184.69 197.97Z"/><path fill="#54386C" transform="scale(1.3913 1.3912)" d="M221.201 267.171C228.344 267.051 228.588 272.909 222.141 274.454C217.547 275.556 212.85 276.042 208.171 276.672L183.315 280.03C182.042 280.224 181.07 280.526 179.919 280.046C178.534 278.776 177.25 276.876 178.198 274.976C180.107 272.889 187.964 271.911 190.95 271.519C200.925 270.209 211.208 268.046 221.201 267.171Z"/><path fill="#54386C" transform="scale(1.3913 1.3912)" d="M219.073 280.469C220.482 280.272 223.982 279.891 225.161 280.729C227.739 282.564 226.315 285.958 223.439 286.667C218.9 287.788 214.117 288.293 209.457 288.946C201.409 290.043 193.374 291.239 185.354 292.534C183.969 292.781 180.625 293.684 179.453 292.91C178.532 292.302 177.979 291.079 177.775 290.032C177.598 289.123 177.693 288.166 178.279 287.419C181.214 283.681 212.465 281.238 219.073 280.469Z"/><path fill="#54386C" transform="scale(1.3913 1.3912)" d="M125.783 143.931C132.636 145.536 140.435 150.511 145.45 155.398C144.715 156.684 143.679 158.065 142.808 159.288C139.03 160.081 126.33 152.848 124.317 149.238C123.633 148.012 125.213 145.057 125.783 143.931Z"/><path fill="#54386C" transform="scale(1.3913 1.3912)" d="M114.612 187.056C118.855 186.753 133.461 185.363 134.822 190.091C134.824 191.681 133.599 193.267 132.538 194.384C128.384 194.946 116.547 195.828 113.125 192.541C111.469 190.95 112.822 188.31 114.612 187.056Z"/><path fill="#54386C" transform="scale(1.3913 1.3912)" d="M140.71 222.123C142.943 222.143 143.911 223.036 144.972 224.944C145.395 229.53 132.059 235.443 128.381 236.895C128.032 236.948 126.921 237.117 126.665 236.976C117.577 231.965 137.139 223.912 140.71 222.123Z"/><path fill="#54386C" transform="scale(1.3913 1.3912)" d="M159.351 112.385C161.315 112.735 165.435 118.977 166.415 120.841C168.897 125.559 173.183 130.695 166.57 133.773C162.559 132.079 156.779 119.638 154.992 115.748C156.365 114.545 157.879 113.47 159.351 112.385Z"/><path fill="#54386C" transform="scale(1.3913 1.3912)" d="M243.421 112.821C253.858 114.506 240.455 130.672 236.982 134.087C235.937 133.466 232.683 131.762 233.011 130.295C234.307 124.494 239.159 116.896 243.421 112.821Z"/><path fill="#54386C" transform="scale(1.3913 1.3912)" d="M199.695 101.706C201.25 101.712 204.22 101.657 204.645 103.547C205.886 109.066 206.114 118.778 204.142 124.027C202.581 124.03 200.663 124.1 199.354 123.279C197.293 120.571 197.608 104.249 199.695 101.706Z"/><path fill="#54386C" transform="scale(1.3913 1.3912)" d="M326.673 228.307C328.16 228.22 329.934 228.117 331.43 228.195C347.848 229.049 376.796 222.698 378.488 247.088C379.248 258.046 373.199 265.155 363.182 268.566C364.526 269.829 365.801 271.164 367 272.566C370.68 276.802 383.469 292.005 377.63 298.178C376.838 299.015 374.681 299.151 373.492 298.996C369.981 298.541 368.407 297.069 366.342 294.36C362.88 288.475 358.254 279.659 353.725 274.683C349.515 270.059 341.479 270.846 335.583 271.027C335.788 277.694 336.908 289.705 334.379 296.074C332.357 301.168 326.998 298.896 323.314 296.884C322.122 288.91 321.576 237.357 323.634 230.264C324.402 229.111 325.387 228.849 326.673 228.307ZM335.71 260.436C343.479 260.392 355.709 261.778 362.161 257.239C364.74 254.456 365.644 251.687 365.53 247.908C365.144 235.221 344.129 239.267 335.695 238.583C335.927 245.754 335.768 253.237 335.71 260.436Z"/><path fill="#54386C" transform="scale(1.3913 1.3912)" d="M395.99 130.263C403.987 129.859 421.638 130.355 427.848 135.026C441.449 145.254 436.424 167.479 418.897 170.147C423.847 175.27 427.753 180.601 431.73 187.092C434.025 190.771 443.017 203.112 432.437 202.264C429.436 202.024 424.424 191.905 422.94 189.225C419.109 183.027 415.43 176.914 410.134 171.826C403.736 171.397 397.808 171.676 391.465 171.464C391.731 175.649 392.1 198.282 390.56 200.642C389.947 201.582 388.905 202.149 387.823 202.358C386.705 202.574 385.595 202.359 384.695 201.638C383.304 200.523 382.812 198.525 382.643 196.831C381.964 189.992 382.673 182.585 382.657 175.683C382.636 166.513 382.548 157.366 382.668 148.191C382.725 143.809 382.611 139.281 383.07 134.92C383.207 133.616 383.275 132.609 384.118 131.596C386.91 130.249 392.662 130.382 395.99 130.263ZM391.409 164.271C399.878 164.307 416.546 165.924 422.858 160.568C427.455 155.456 429.019 146.328 423.237 141.787C415.939 136.056 400.253 137.45 391.395 137.731C391.745 145.005 391.617 156.867 391.409 164.271Z"/><path fill="#54386C" transform="scale(1.3913 1.3912)" d="M542.806 227.284C545.486 227.442 548.448 227.759 549.885 230.393C553.907 237.767 557.097 245.63 560.652 253.246C566.348 265.45 571.997 277.683 577.543 289.956C577.982 291.34 579.523 293.778 578.598 295.156C571.974 305.03 566.628 296.485 563.533 289.443C562.465 287.013 561.539 284.811 560.826 282.237C555.833 281.991 550.515 282.062 545.495 282.042C539.221 282.207 532.944 282.244 526.668 282.153C524.761 286.761 523.253 290.757 520.623 295.349C518.315 301.341 509.292 299.881 509.179 294.401C509.083 289.787 516.223 276.054 518.11 271.945L528.333 249.265C531.123 243.166 534.402 235.372 537.709 229.511C538.645 227.851 541.027 227.522 542.806 227.284ZM531.47 271.644C533.996 271.456 540.665 271.416 543.285 271.571C546.625 271.577 553.388 271.411 556.458 271.675C554.842 268.243 544.79 244.692 543.423 243.49C539.293 252.812 535.308 262.198 531.47 271.644Z"/><path fill="#54386C" transform="scale(1.3913 1.3912)" d="M395.206 228.336C400.341 228.036 434.66 227.512 437.067 229.05C438.222 229.787 438.919 231.062 439.143 232.395C439.392 233.876 439.026 235.845 438.048 237.004C437.395 237.777 436.455 238.152 435.489 238.348C427.246 240.017 413.011 238.389 403.914 239.011C404.009 245.036 403.952 251.193 403.958 257.228C412.109 256.492 421.986 257.371 430.175 257.19C438.618 257.004 439.036 266.561 432.366 267.543C423.665 268.823 412.723 266.361 404.161 268.22L403.863 268.791C404.03 274.921 403.898 281.646 403.904 287.822C412.239 287.912 428.76 286.526 436.167 288.69C437.349 289.036 438.207 289.448 438.787 290.604C439.494 292.015 439.531 294.058 438.975 295.522C438.46 296.879 437.374 297.718 436.059 298.221C433.348 299.259 404.603 299.015 400.109 298.701C398.094 298.56 395.589 298.422 393.769 297.53C392.785 297.048 392.588 296.684 392.261 295.636C389.953 288.238 391.096 270.056 391.048 261.588C390.997 252.457 390.361 242.897 391.23 233.821C391.353 232.536 391.555 231.265 392.226 230.132C392.918 228.962 393.987 228.67 395.206 228.336Z"/><path fill="#54386C" transform="scale(1.3913 1.3912)" d="M476.396 227.626C485.208 226.351 497.836 228.995 503.85 235.964C505.473 238.685 504.569 243.431 501.631 244.792C499.401 245.813 495.761 243.624 493.67 242.427C486.859 238.529 479.135 236.838 471.584 240.412C454.743 248.381 456.07 282.108 474.355 287.616C481.818 289.865 488.912 287.014 495.397 283.578C498.553 282.049 503.981 280.747 504.376 285.481C505.1 294.147 493.149 297.852 487.087 298.85C467.832 302.219 449.075 291.034 446.704 270.693C444.167 248.938 453.087 230.605 476.396 227.626Z"/><path fill="#54386C" transform="scale(1.3913 1.3912)" d="M539.071 130.274C542.155 130.222 574.075 127.87 567.262 136.617C563.586 139.109 536.924 137.928 531.166 137.784C531.341 145.476 531.217 153.676 531.238 161.411C540.971 161.579 550.775 161.694 560.519 161.631C563.113 161.615 565.88 162.984 566.536 165.747C566.353 166.472 566.308 166.824 565.742 167.358C562.06 170.831 537.432 168.991 531.151 169.035L531.154 182.396L531.219 194.446C541.626 194.637 552.143 193.657 562.526 194.57C564.25 194.722 567.391 194.775 568.478 196.231C568.976 196.897 569.025 197.832 568.894 198.625C568.759 199.442 568.356 200.424 567.626 200.889C564.395 202.948 528.491 202.273 523.563 201.099C521.73 195.392 522.015 177.503 522.298 170.756C522.629 162.86 520.996 138.471 523.352 131.95C525.702 129.893 535.561 130.323 539.071 130.274Z"/><path fill="#54386C" transform="scale(1.3913 1.3912)" d="M452.277 130.127C460.385 129.981 458.274 135.665 458.668 141.657C459.965 161.367 450.168 200.941 483.852 194.484C498.926 191.595 497.818 174.675 497.797 162.856C497.774 156.359 497.705 149.861 497.591 143.365C497.521 139.629 497.022 134.345 499.069 131.078C500.284 129.139 502.539 129.303 504.029 130.932C506.53 133.667 506.083 137.008 505.996 140.436C505.329 154.401 506.521 167.988 505.231 181.98C502.6 210.535 454.159 209.125 450.724 182.229C450.104 177.37 450.051 172.14 450.114 167.218C450.262 155.566 449.787 143.779 450.499 132.164C450.559 131.198 451.578 130.576 452.277 130.127Z"/><path fill="#54386C" transform="scale(1.3913 1.3912)" d="M590.793 227.93C593.789 227.637 599.285 227.151 599.654 231.286C600.508 240.857 600.444 250.516 600.343 260.117C600.263 269.362 600.321 278.608 600.515 287.851C609.245 287.766 618.261 287.296 626.949 287.681C634.519 288.016 636.627 293.422 630.212 298.103C625.656 299.444 590.991 299.44 588.734 296.864C587.912 294.71 587.352 291.695 587.352 289.362C587.353 269.788 586.45 249.959 587.72 230.455C587.799 229.245 589.852 228.347 590.793 227.93Z"/><path fill="#54386C" transform="scale(1.3913 1.3912)" d="M645.353 227.934C645.52 227.913 645.687 227.894 645.855 227.879C650.066 227.489 654.226 227.462 654.664 232.694C656.196 250.952 654.245 269.276 655.128 287.569C662.937 287.572 670.745 287.555 678.555 287.54C680.916 287.535 683.515 287.556 685.722 288.513C690.829 290.728 689.198 295.473 685.662 298.255C685.594 298.274 685.168 298.406 685.109 298.407C678.033 298.411 648.243 300.194 643.643 297.079C642.883 295.755 642.392 292.601 642.381 291.066C642.239 271.006 641.618 250.706 642.683 230.694C642.75 229.43 644.363 228.484 645.353 227.934Z"/><path fill="#54386C" transform="scale(1.3913 1.3912)" d="M322.565 130.619C327.665 130.331 369.253 130.427 371.611 131.581C372.604 132.067 373.4 132.933 373.655 134.021C373.902 135.078 373.81 136.131 373.224 137.052C371.16 138.49 352.996 137.96 349.103 137.929C349.172 139.224 349.071 140.698 349.055 142.017C348.874 156.355 348.887 170.641 349.568 184.961L349.619 186.839C349.69 189.949 349.902 199.67 347.499 201.26C343.427 203.378 340.418 202.232 340.331 197.442C340.06 182.652 340.172 167.984 340.141 153.205C340.131 148.418 339.907 142.95 340.276 138.267C336.125 138.408 332.004 138.535 327.757 138.51C325.064 138.494 315.926 138.402 315.703 134.447C315.47 130.315 319.656 130.685 322.565 130.619Z"/><path fill="#54386C" transform="scale(1.3913 1.3912)" d="M260.899 221.977C265.284 221.795 274.15 227.284 277.471 230.245C280.367 232.828 280.412 235.116 277.397 237.509C273.7 237.813 258.802 229.581 258.926 224.511C259.315 223.245 259.929 222.844 260.899 221.977Z"/><path fill="#54386C" transform="scale(1.3913 1.3912)" d="M273.328 186.675C276.854 186.537 295.853 184.778 290.979 192.758C290.226 193.991 288.897 194.232 287.59 194.445C282.968 194.509 270.708 195.878 268.532 191.557C267.113 188.739 271.098 187.076 273.328 186.675Z"/><path fill="#54386C" transform="scale(1.3913 1.3912)" d="M275.463 144.896C277.307 144.896 278.864 145.298 279.782 146.961C279.984 151.981 267.116 157.761 263.168 159.589C261.623 159.501 259.946 159.072 258.944 157.812C257.755 152.321 271.162 146.063 275.463 144.896Z"/></svg>